<svg version="1.1" id="Layer_1" xmlns="http://www.w3.org/2000/svg" xmlns:xlink="http://www.w3.org/1999/xlink" x="0px" y="0px" viewBox="0 0 30 30" style="enable-background:new 0 0 30 30;" xml:space="preserve"><g><path d="M21.5,13.1V0.5c0-0.2-0.1-0.4-0.3-0.5s-0.4,0-0.5,0.1L10.8,9H7c-3.6,0-6.5,2.7-6.5,6s2.9,6,6.5,6h3.8l9.9,8.9
		C20.8,30,20.9,30,21,30s0.1,0,0.2,0c0.2-0.1,0.3-0.3,0.3-0.5V16.9c0.9-0.2,1.5-1,1.5-1.9S22.4,13.3,21.5,13.1z M10.5,20H7
		c-3,0-5.5-2.3-5.5-5S4,10,7,10h3.5V20z M21,16c-0.3,0-0.5,0.2-0.5,0.5v11.9l-9-8.1V9.7l9-8.1v11.9c0,0.3,0.2,0.5,0.5,0.5
		c0.6,0,1,0.4,1,1C22,15.6,21.6,16,21,16z"></path><path d="M24,11.5c-0.2-0.2-0.5-0.2-0.7,0s-0.2,0.5,0,0.7c0.8,0.8,1.2,1.8,1.2,2.8s-0.4,2.1-1.2,2.8c-0.2,0.2-0.2,0.5,0,0.7
		c0.1,0.1,0.2,0.1,0.4,0.1c0.1,0,0.3,0,0.4-0.1c0.9-0.9,1.5-2.2,1.5-3.5S25,12.4,24,11.5z"></path><path d="M25.5,10c-0.2-0.2-0.5-0.2-0.7,0s-0.2,0.5,0,0.7c1.1,1.1,1.8,2.6,1.8,4.2S26,18,24.8,19.1c-0.2,0.2-0.2,0.5,0,0.7
		c0.1,0.1,0.2,0.1,0.4,0.1c0.1,0,0.3,0,0.4-0.1c1.3-1.3,2.1-3.1,2.1-4.9S26.8,11.4,25.5,10z"></path><path d="M26.9,8.6c-0.2-0.2-0.5-0.2-0.7,0s-0.2,0.5,0,0.7c3.1,3.1,3.1,8.2,0,11.3c-0.2,0.2-0.2,0.5,0,0.7c0.1,0.1,0.2,0.1,0.4,0.1
		s0.3,0,0.4-0.1C30.4,17.8,30.4,12.1,26.9,8.6z"></path><path d="M6,11c-0.3,0-0.5,0.2-0.5,0.5v3C5.5,14.8,5.7,15,6,15s0.5-0.2,0.5-0.5v-3C6.5,11.2,6.3,11,6,11z"></path></g></svg>