<svg xmlns="http://www.w3.org/2000/svg" xmlns:xlink="http://www.w3.org/1999/xlink" id="Layer_1" x="0px" y="0px" viewBox="0 0 30 30" style="enable-background:new 0 0 30 30;" xml:space="preserve"><g><path d="M1,11c-0.3,0-0.5,0.2-0.5,0.5V18c0,0.3,0.2,0.5,0.5,0.5s0.5-0.2,0.5-0.5v-6.5C1.5,11.2,1.3,11,1,11z"></path><path d="M5,6.5C4.7,6.5,4.5,6.7,4.5,7v16c0,0.3,0.2,0.5,0.5,0.5s0.5-0.2,0.5-0.5V7C5.5,6.7,5.3,6.5,5,6.5z"></path><path d="M9,1.5C8.7,1.5,8.5,1.7,8.5,2v26c0,0.3,0.2,0.5,0.5,0.5s0.5-0.2,0.5-0.5V2C9.5,1.7,9.3,1.5,9,1.5z"></path><path d="M13,2.5c-0.3,0-0.5,0.2-0.5,0.5v24c0,0.3,0.2,0.5,0.5,0.5s0.5-0.2,0.5-0.5V3C13.5,2.7,13.3,2.5,13,2.5z"></path><path d="M17,7.5c-0.3,0-0.5,0.2-0.5,0.5v14c0,0.3,0.2,0.5,0.5,0.5s0.5-0.2,0.5-0.5V8C17.5,7.7,17.3,7.5,17,7.5z"></path><path d="M21,2.5c-0.3,0-0.5,0.2-0.5,0.5v24c0,0.3,0.2,0.5,0.5,0.5s0.5-0.2,0.5-0.5V3C21.5,2.7,21.3,2.5,21,2.5z"></path><path d="M25,7.5c-0.3,0-0.5,0.2-0.5,0.5v14c0,0.3,0.2,0.5,0.5,0.5s0.5-0.2,0.5-0.5V8C25.5,7.7,25.3,7.5,25,7.5z"></path><path d="M29,11.5c-0.3,0-0.5,0.2-0.5,0.5v6c0,0.3,0.2,0.5,0.5,0.5s0.5-0.2,0.5-0.5v-6C29.5,11.7,29.3,11.5,29,11.5z"></path></g></svg>