<svg xmlns="http://www.w3.org/2000/svg" xmlns:xlink="http://www.w3.org/1999/xlink" id="Layer_1" x="0px" y="0px" viewBox="0 0 30 30" style="enable-background:new 0 0 30 30;" xml:space="preserve"><g><path d="M14.5,1C7.2,1,1,7.6,1,15.5v7C1,22.8,1.2,23,1.5,23S2,22.8,2,22.5v-7C2,8.3,7.8,2,14.5,2C21.4,2,28,8.6,28,15.5v7   c0,0.3,0.2,0.5,0.5,0.5s0.5-0.2,0.5-0.5v-7C29,7.9,22.1,1,14.5,1z"></path><path d="M5.5,17C4.7,17,4,17.7,4,18.5v9C4,28.3,4.7,29,5.5,29S7,28.3,7,27.5v-9C7,17.7,6.3,17,5.5,17z M6,27.5   C6,27.8,5.8,28,5.5,28S5,27.8,5,27.5v-9C5,18.2,5.2,18,5.5,18S6,18.2,6,18.5V27.5z"></path><path d="M24.5,17c-0.8,0-1.5,0.7-1.5,1.5v9c0,0.8,0.7,1.5,1.5,1.5s1.5-0.7,1.5-1.5v-9C26,17.7,25.3,17,24.5,17z M25,27.5   c0,0.3-0.2,0.5-0.5,0.5S24,27.8,24,27.5v-9c0-0.3,0.2-0.5,0.5-0.5s0.5,0.2,0.5,0.5V27.5z"></path><path d="M15,14c-1.1,0-2,0.9-2,2s0.9,2,2,2s2-0.9,2-2S16.1,14,15,14z M15,17c-0.6,0-1-0.4-1-1s0.4-1,1-1s1,0.4,1,1S15.6,17,15,17z"></path><path d="M15,12c-1.3,0-2.6,0.5-3.5,1.5c-0.2,0.2-0.2,0.5,0,0.7s0.5,0.2,0.7,0c1.5-1.5,4.1-1.5,5.7,0c0.1,0.1,0.2,0.1,0.4,0.1   s0.3,0,0.4-0.1c0.2-0.2,0.2-0.5,0-0.7C17.6,12.5,16.3,12,15,12z"></path><path d="M15,10c-1.9,0-3.6,0.7-4.9,2.1c-0.2,0.2-0.2,0.5,0,0.7s0.5,0.2,0.7,0c1.1-1.1,2.6-1.8,4.2-1.8c1.6,0,3.1,0.6,4.2,1.8   c0.1,0.1,0.2,0.1,0.4,0.1s0.3,0,0.4-0.1c0.2-0.2,0.2-0.5,0-0.7C18.6,10.7,16.9,10,15,10z"></path><path d="M8.6,10.6c-0.2,0.2-0.2,0.5,0,0.7s0.5,0.2,0.7,0c3.1-3.1,8.2-3.1,11.3,0c0.1,0.1,0.2,0.1,0.4,0.1c0.1,0,0.3,0,0.4-0.1   c0.2-0.2,0.2-0.5,0-0.7C17.9,7.1,12.1,7.1,8.6,10.6z"></path></g></svg>