<svg version="1.1" id="Layer_1" xmlns="http://www.w3.org/2000/svg" xmlns:xlink="http://www.w3.org/1999/xlink" x="0px" y="0px" viewBox="0 0 30 30" style="enable-background:new 0 0 30 30;" xml:space="preserve"><g><path d="M14.5,1C7.2,1,1,7.6,1,15.5v7C1,22.8,1.2,23,1.5,23S2,22.8,2,22.5v-7C2,8.3,7.8,2,14.5,2C21.4,2,28,8.6,28,15.5v7
		c0,0.3,0.2,0.5,0.5,0.5s0.5-0.2,0.5-0.5v-7C29,7.9,22.1,1,14.5,1z"></path><path d="M5.5,17C4.7,17,4,17.7,4,18.5v9C4,28.3,4.7,29,5.5,29S7,28.3,7,27.5v-9C7,17.7,6.3,17,5.5,17z M6,27.5
		C6,27.8,5.8,28,5.5,28S5,27.8,5,27.5v-9C5,18.2,5.2,18,5.5,18S6,18.2,6,18.5V27.5z"></path><path d="M24.5,17c-0.8,0-1.5,0.7-1.5,1.5v9c0,0.8,0.7,1.5,1.5,1.5s1.5-0.7,1.5-1.5v-9C26,17.7,25.3,17,24.5,17z M25,27.5
		c0,0.3-0.2,0.5-0.5,0.5S24,27.8,24,27.5v-9c0-0.3,0.2-0.5,0.5-0.5s0.5,0.2,0.5,0.5V27.5z"></path></g></svg>