<svg xmlns="http://www.w3.org/2000/svg" id="Layer_1" data-name="Layer 1" viewBox="0 0 29 28.08"><g><path d="M28,15H2A1.33,1.33,0,0,1,.5,13.5V10C.5,9,1,8,2,8H28c1,0,1.5,1,1.5,2v3.5A1.33,1.33,0,0,1,28,15ZM2,9c-.3,0-.5.6-.5,1v3.5c0,.4.1.5.5.5H28c.4,0,.5-.1.5-.5V10c0-.4-.2-1-.5-1Z" transform="translate(-0.5 -0.92)"></path><path d="M25.5,29H4.5c-1.7,0-3-1.9-3-3.5v-11A.47.47,0,0,1,2,14H28a.47.47,0,0,1,.5.5v11C28.5,27.1,27.2,29,25.5,29ZM2.5,15V25.5c0,1.1.9,2.5,2,2.5h21c1.1,0,2-1.4,2-2.5V15Z" transform="translate(-0.5 -0.92)"></path><path d="M14.8,8.5A7.57,7.57,0,0,1,7.6,3.3h0A2,2,0,0,1,8,1.5,1.79,1.79,0,0,1,9.8,1a7.64,7.64,0,0,1,5.5,7A.54.54,0,0,1,14.8,8.5ZM9.3,2a.55.55,0,0,0-.5.3.67.67,0,0,0-.3.8h0a6.5,6.5,0,0,0,5.7,4.4A6.54,6.54,0,0,0,9.6,2Z" transform="translate(-0.5 -0.92)"></path><path d="M14.8,8.5a.47.47,0,0,1-.5-.5,6.94,6.94,0,0,1,4.9-6.9,1.79,1.79,0,0,1,1.8.5,1.79,1.79,0,0,1,.5,1.8h0A7,7,0,0,1,14.8,8.5ZM19.7,2h-.2a5.92,5.92,0,0,0-4.2,5.4A6.06,6.06,0,0,0,20.5,3h0a.78.78,0,0,0-.2-.8A1.42,1.42,0,0,0,19.7,2Z" transform="translate(-0.5 -0.92)"></path><path d="M15,28.5a.47.47,0,0,1-.5-.5V9.1l-3.2,2.8a.49.49,0,0,1-.7-.7l4-3.5c.1-.1.4-.2.5-.1a.55.55,0,0,1,.3.5v20C15.5,28.3,15.3,28.5,15,28.5Z" transform="translate(-0.5 -0.92)"></path><path d="M18,12a.76.76,0,0,1-.4-.2l-3-3.5a.43.43,0,0,1,.1-.7.43.43,0,0,1,.7.1l3,3.5a.43.43,0,0,1-.1.7A.37.37,0,0,1,18,12Z" transform="translate(-0.5 -0.92)"></path></g></svg>