<svg xmlns="http://www.w3.org/2000/svg" data-name="Layer 1" viewBox="0 0 30 29"><g><path d="M18,29.5H4.3A4.33,4.33,0,0,1,0,25.2V16.7a4.33,4.33,0,0,1,4.3-4.3H18c2.4,0,4,2.5,4,4.8v.3l7.2-5a.45.45,0,0,1,.5,0,.54.54,0,0,1,.3.4v16c0,.2-.1.4-.3.4a.45.45,0,0,1-.5,0l-7.2-5v.3C22,27,20.4,29.5,18,29.5ZM4.3,13.5A3.33,3.33,0,0,0,1,16.8v8.5a3.33,3.33,0,0,0,3.3,3.3H18c1.8,0,3-2,3-3.8V23.5c0-.2.1-.4.3-.4a.45.45,0,0,1,.5,0l7.2,5V14l-7.2,5a.45.45,0,0,1-.5,0,.54.54,0,0,1-.3-.4V17.3c0-1.8-1.2-3.8-3-3.8Z" transform="translate(0 -0.5)"></path><path d="M16.5,11.5A5.55,5.55,0,0,1,11,6,5.5,5.5,0,0,1,22,6,5.55,5.55,0,0,1,16.5,11.5Zm0-10A4.5,4.5,0,1,0,21,6,4.48,4.48,0,0,0,16.5,1.5Z" transform="translate(0 -0.5)"></path><path d="M4.5,11.5A4.5,4.5,0,1,1,9,7,4.48,4.48,0,0,1,4.5,11.5Zm0-8A3.54,3.54,0,0,0,1,7a3.54,3.54,0,0,0,3.5,3.5A3.54,3.54,0,0,0,8,7,3.54,3.54,0,0,0,4.5,3.5Z" transform="translate(0 -0.5)"></path></g></svg>